<svg xmlns="http://www.w3.org/2000/svg" viewBox="0 0 100 100" width="100" height="100">
  <g fill="#d9896c">
    <!-- Claude/Anthropic sunburst logo - 12 elongated tapered rays -->
    <path d="M50,5 L55,22 L53,35 L50,38 L47,35 L45,22 Z"/>
    <path d="M50,5 L55,22 L53,35 L50,38 L47,35 L45,22 Z" transform="rotate(30, 50, 50)"/>
    <path d="M50,5 L55,22 L53,35 L50,38 L47,35 L45,22 Z" transform="rotate(60, 50, 50)"/>
    <path d="M50,5 L55,22 L53,35 L50,38 L47,35 L45,22 Z" transform="rotate(90, 50, 50)"/>
    <path d="M50,5 L55,22 L53,35 L50,38 L47,35 L45,22 Z" transform="rotate(120, 50, 50)"/>
    <path d="M50,5 L55,22 L53,35 L50,38 L47,35 L45,22 Z" transform="rotate(150, 50, 50)"/>
    <path d="M50,5 L55,22 L53,35 L50,38 L47,35 L45,22 Z" transform="rotate(180, 50, 50)"/>
    <path d="M50,5 L55,22 L53,35 L50,38 L47,35 L45,22 Z" transform="rotate(210, 50, 50)"/>
    <path d="M50,5 L55,22 L53,35 L50,38 L47,35 L45,22 Z" transform="rotate(240, 50, 50)"/>
    <path d="M50,5 L55,22 L53,35 L50,38 L47,35 L45,22 Z" transform="rotate(270, 50, 50)"/>
    <path d="M50,5 L55,22 L53,35 L50,38 L47,35 L45,22 Z" transform="rotate(300, 50, 50)"/>
    <path d="M50,5 L55,22 L53,35 L50,38 L47,35 L45,22 Z" transform="rotate(330, 50, 50)"/>
    <!-- Center circle -->
    <circle cx="50" cy="50" r="15"/>
  </g>
</svg>